<svg xmlns="http://www.w3.org/2000/svg" viewBox="0 0 48 60" x="0px" y="0px"><path d="M41.03,18.97c-.56-.62-1.37-.97-2.2-.97H9.17c-.83,0-1.64,.35-2.2,.97-.57,.61-.86,1.45-.79,2.28l1.36,16.33c.31,3.6,3.37,6.42,6.98,6.42h18.96c3.61,0,6.67-2.82,6.98-6.42l1.36-16.33c.07-.83-.22-1.67-.79-2.28Zm-24.03,9.03c-.55,0-1-.45-1-1s.45-1,1-1,1,.45,1,1-.45,1-1,1Zm11,8c0-2.21-1.79-4-4-4s-4,1.79-4,4h-2c0-3.31,2.69-6,6-6s6,2.69,6,6h-2Zm3-8c-.55,0-1-.45-1-1s.45-1,1-1,1,.45,1,1-.45,1-1,1Z"/><path d="M16,14c0-4.41,3.59-8,8-8s8,3.59,8,8v2h2v-2c0-5.51-4.49-10-10-10s-10,4.49-10,10v2h2v-2Z"/><text x="0" y="63" fill="#000000" font-size="5px" font-weight="bold" font-family="'Helvetica Neue', Helvetica, Arial-Unicode, Arial, Sans-serif">Created by Cannavale</text><text x="0" y="68" fill="#000000" font-size="5px" font-weight="bold" font-family="'Helvetica Neue', Helvetica, Arial-Unicode, Arial, Sans-serif">from the Noun Project</text></svg>