<?xml version="1.0" encoding="utf-8"?>
<!-- Generator: Adobe Illustrator 25.3.1, SVG Export Plug-In . SVG Version: 6.00 Build 0)  -->
<svg version="1.1" id="Шар_1" xmlns="http://www.w3.org/2000/svg" xmlns:xlink="http://www.w3.org/1999/xlink" x="0px" y="0px"
	 viewBox="0 0 171.4 171.39" style="enable-background:new 0 0 171.4 171.39;" xml:space="preserve">
<style type="text/css">
	.st0{fill:#EB3323;}
</style>
<g id="Слой_2">
	<path class="st0" d="M100.77,139.11v-35.65H70.55v35.65H47.42l28.05,28.06c5.64,5.62,14.76,5.62,20.4,0l28.06-28.06H100.77z
		 M32.26,123.99V47.4L4.22,75.45c-5.63,5.63-5.63,14.77,0,20.4L32.26,123.99z M70.52,32.23v35.64h30.25V32.23h23.16l-28.1-28
		c-5.63-5.63-14.77-5.63-20.4,0l-28.02,28H70.52z M167.08,75.41l-28.03-28v76.51l28.06-28.06c5.66-5.58,5.73-14.68,0.15-20.34
		c-0.01-0.01-0.02-0.02-0.03-0.03c0,0,0,0-0.12,0L167.08,75.41z"/>
</g>
</svg>
