<!DOCTYPE svg PUBLIC "-//W3C//DTD SVG 1.1//EN" "http://www.w3.org/Graphics/SVG/1.1/DTD/svg11.dtd">
<!-- Uploaded to: SVG Repo, www.svgrepo.com, Transformed by: SVG Repo Mixer Tools -->
<svg fill="#ebedf3" height="800px" width="800px" version="1.1" id="Layer_1" xmlns="http://www.w3.org/2000/svg" xmlns:xlink="http://www.w3.org/1999/xlink" viewBox="0 0 508.189 508.189" xml:space="preserve">
<g id="SVGRepo_bgCarrier" stroke-width="0"/>
<g id="SVGRepo_tracerCarrier" stroke-linecap="round" stroke-linejoin="round"/>
<g id="SVGRepo_iconCarrier"> <g> <g> <g> <path d="M320.876,463.668V263.32c0-12.288-9.951-22.261-22.261-22.261h-22.372l0.089-70.879 c25.867-9.216,44.544-33.703,44.544-62.687c0-36.819-29.963-66.783-66.783-66.783c-36.82,0-66.783,29.963-66.783,66.783 c0,28.984,18.655,53.448,44.499,62.664l-0.089,70.901h-22.15c-12.31,0-22.261,9.973-22.261,22.261v200.348 c-12.31,0-22.261,9.973-22.261,22.261c0,12.288,9.951,22.261,22.261,22.261h22.261h89.043h22.261 c12.31,0,22.261-9.973,22.261-22.261C343.137,473.641,333.186,463.668,320.876,463.668z"/> <path d="M140.942,40.112c-11.219-5.298-24.42-0.49-29.651,10.618c-8.637,18.276-13.023,37.376-13.023,56.765 s4.385,38.489,13.023,56.765c3.807,8.036,11.798,12.755,20.146,12.755c3.183,0,6.411-0.69,9.505-2.137 c11.108-5.254,15.85-18.521,10.618-29.629c-5.81-12.31-8.771-24.999-8.771-37.754c0-12.755,2.961-25.466,8.771-37.754 C156.791,58.633,152.05,45.366,140.942,40.112z"/> <path d="M60.224,2.135C49.115-3.096,35.826,1.668,30.594,12.776c-14.18,30.03-21.37,61.907-21.37,94.72 c0,32.813,7.19,64.69,21.37,94.72c3.807,8.058,11.798,12.778,20.146,12.778c3.183,0,6.411-0.69,9.483-2.137 c11.108-5.254,15.872-18.521,10.641-29.629c-11.353-24.064-17.119-49.553-17.119-75.731c0-26.179,5.766-51.667,17.119-75.731 C76.096,20.656,71.332,7.389,60.224,2.135z"/> <path d="M367.246,40.112c-11.108,5.254-15.85,18.521-10.618,29.629c5.81,12.288,8.771,24.999,8.771,37.754 c0,12.755-2.961,25.444-8.771,37.754c-5.231,11.108-0.49,24.376,10.618,29.629c3.094,1.447,6.322,2.137,9.505,2.137 c8.348,0,16.339-4.719,20.146-12.755c8.637-18.276,13.023-37.376,13.023-56.765s-4.385-38.489-13.023-56.765 C391.666,39.623,378.465,34.814,367.246,40.112z"/> <path d="M477.595,12.765c-5.231-11.108-18.521-15.872-29.629-10.641c-11.108,5.254-15.872,18.521-10.641,29.651 c11.353,24.064,17.119,49.53,17.119,75.709c0,26.201-5.766,51.667-17.119,75.731c-5.231,11.13-0.467,24.376,10.641,29.629 c3.072,1.447,6.3,2.137,9.483,2.137c8.348,0,16.34-4.697,20.146-12.755c14.18-30.052,21.37-61.93,21.37-94.742 C498.965,74.695,491.775,42.817,477.595,12.765z"/> </g> </g> </g> </g>
</svg>